<svg xmlns="http://www.w3.org/2000/svg" viewBox="0 0 256 256">
  <defs>
    <style>
      .cls-1{fill:#012b3e;}.cls-2{fill:#0175ac;}
      @media(prefers-color-scheme: dark){.cls-1{fill:#aaa;}.cls-2{fill:#fff;}}
    </style>
  </defs>
  <g id="AutoLogout">
    <path class="cls-1"
      d="M127.79,254.92C-47.87,255,10.71,281.82.8,25.6A24.66,24.66,0,0,1,25.45,1H127.79c32.21.18,32.26,49.14,0,49.3H50.1V205.63h77.69C160.19,206.18,160.19,254.38,127.79,254.92Z" />
    <path class="cls-2"
      d="M171.48,152.6c-10.87,10.86-19.84,19.58-19.84,19.58C135.91,186.83,148,215,169.06,214.25A24.54,24.54,0,0,0,186.49,207l61.41-61.67c8.45-9.26,10.39-25.22.1-34.85L186.6,49.1C163.29,26.58,129.24,60.68,151.74,84l19.33,19.33c-21.94,2.39-72-11-72.6,24.65a24.65,24.65,0,0,0,24.64,24.65Z" />
  </g>
</svg>